PathFileType	4	(X/Y/Z)	C:/Users/beibeiliu/ov580/test_trc/User3\sequence.2_training_dense_left.trc
DataRate	CameraRate	NumFrames	NumMarkers	Units	OrigDataRate	OrigDataStartFrame	OrigNumFrames
120	120	19	19	mm	120	35	68
Frame#	Time	ThumbCMC			ThumbMCP			ThumbIP			ThumbTip			IndexMCP			IndexPIP			IndexTip			MiddleMCP			MiddlePIP			MiddleTip			RingMCP			RingPIP			RingTip			PinkyMCP			PinkyPIP			PinkyTip			BackHand1			BackHand2			BackHand3	
		X0	Y0	Z0	X1	Y1	Z1	X2	Y2	Z2	X3	Y3	Z3	X4	Y4	Z4	X5	Y5	Z5	X6	Y6	Z6	X7	Y7	Z7	X8	Y8	Z8	X9	Y9	Z9	X10	Y10	Z10	X11	Y11	Z11	X12	Y12	Z12	X13	Y13	Z13	X14	Y14	Z14	X15	Y15	Z15	X16	Y16	Z16	X17	Y17	Z17	X18	Y18	Z18	
34	0.283333	-220.081	-19.4051	-54.1497	-223	-1.92444	-83.6219	-216.732	2.20866	-112.176	-198.253	-3.25357	-131.834	-215.695	-57.7342	-121.002	-200.671	-42.6095	-150.47	-186.462	-19.1079	-145.748	-196.98	-69.7281	-127.969	-180.054	-50.1916	-149.172	-167.375	-18.5272	-128.781	-174.838	-72.7683	-116.602	-161.923	-48.8672	-135.119	-156.876	-23.5995	-112.195	-155.999	-73.39	-99.8551	-147.784	-50.19	-118.512	-150.361	-26.3187	-100.986	-190.323	-78.0011	-61.3794	-187.36	-69.5114	-29.6448	-213.397	-60.109	-52.2527	
35	0.291667	-248.536	-3.85415	-40.2882	-249.707	7.25307	-73.673	-246.308	8.92796	-100.161	-234.431	-2.55647	-121.671	-272.449	-45.2847	-105.946	-257.346	-36.0393	-137.432	-232.956	-22.321	-135.321	-258.387	-67.441	-111.979	-241.154	-53.274	-136.439	-213.837	-30.1072	-121.877	-240.113	-76.5289	-103.408	-219.744	-61.4826	-124.527	-204.342	-40.4895	-107.28	-222.737	-84.6307	-94.341	-206.521	-66.9038	-110.258	-194.279	-47.7121	-94.8397	-248.643	-75.3848	-47.3752	-238.736	-67.1803	-17.1188	-258.913	-43.498	-35.2794	
36	0.3	-267.81	11.8255	-28.2668	-266.85	22.6782	-60.0385	-265.328	24.0772	-87.4475	-262.506	11.4792	-114.126	-312.058	-17.6386	-90.4117	-302.977	-17.9021	-120.607	-270.4	-16.1986	-124.172	-313.367	-37.1633	-93.7445	-297.505	-34.7353	-122.909	-259.371	-33.829	-112.89	-300.882	-55.7583	-86.9626	-282.473	-54.5933	-111.588	-251.339	-40.7636	-96.006	-288.014	-69.4375	-81.2603	-269.416	-63.6106	-98.4316	-244.423	-52.2958	-83.9975	-298.786	-53.0899	-30.1814	-286.931	-48.6371	-4.81211	-294.457	-18.9541	-21.5613	
37	0.308333	-274.227	15.4097	-23.7496	-267.832	26.9333	-54.7601	-266.302	26.9228	-81.096	-273.48	14.769	-106.713	-330.281	19.141	-84.3707	-321.406	13.8791	-113.761	-293.25	-0.62097	-117.205	-341.884	1.00079	-81.7085	-330.421	-6.23289	-113.142	-298.414	-25.0897	-106.18	-342.277	-21.2591	-77.2897	-323.366	-28.8971	-104.233	-293.316	-39.5724	-88.3974	-339.322	-41.4629	-66.7752	-321.522	-48.3626	-89.6788	-294.446	-46.8595	-82.5885	-331.103	-15.9423	-19.5984	-320.748	-26.4116	5.25661	-310.598	9.9817	-14.4724	
38	0.316667	-270.668	1.18746	-25.6052	-254.143	4.89863	-56.7249	-255.452	4.82574	-86.8777	-271.71	-5.71434	-104.439	-314.072	33.2028	-82.2967	-310.315	23.8543	-116.192	-300.948	-6.55016	-118.32	-332.872	27.1092	-83.4258	-332.902	10.4742	-114.048	-314.631	-24.4906	-104.747	-346.23	7.94507	-79.041	-341.189	-11.6335	-102.966	-319.808	-34.355	-90.4766	-354.756	-12.1789	-68.3734	-347.105	-30.2353	-87.4345	-320.484	-46.5818	-75.575	-336.505	4.62097	-20.5796	-324.908	-3.80218	3.79068	-301.599	17.9276	-15.3464	
39	0.325	-259.215	-20.5513	-28.5034	-244.622	-26.6901	-55.1742	-241.693	-30.5713	-89.3309	-261.524	-36.4807	-110.747	-287.727	16.2677	-97.1801	-287.822	4.42444	-123.659	-286.437	-31.1622	-121.504	-312.248	17.1367	-96.7101	-313.599	-3.86646	-122.47	-309.325	-36.8315	-111.002	-324.877	5.29397	-87.7139	-328.541	-19.0589	-108.181	-317.377	-46.3236	-89.2172	-342.685	-9.1072	-77.5559	-338.653	-31.8698	-91.5166	-321.492	-50.0636	-73.0817	-315.687	9.77261	-30.0969	-314.386	-1.96791	-3.39501	-280.631	5.42742	-22.4554	
40	0.333333	-229.333	-34.9945	-27.8111	-217.433	-45.7051	-53.3837	-212.356	-55.6476	-82.1145	-226.996	-64.9434	-104.899	-254.542	-7.41285	-103.387	-253.146	-26.8517	-127.557	-258.119	-57.1545	-121.062	-276.973	-5.83017	-105.111	-279.339	-28.6538	-127.962	-274.22	-63.1842	-108.965	-295.332	-14.3525	-96.4702	-296.972	-40.7408	-113.124	-286.807	-64.1402	-87.204	-309.991	-22.5406	-82.7598	-310.876	-49.5029	-93.3387	-294.75	-64.8567	-72.0875	-291.577	1.06124	-42.9781	-288.494	-4.76553	-11.1652	-256.591	-3.56558	-28.5814	
41	0.341667	-194.396	-32.458	-22.3372	-180.749	-49.1298	-41.0082	-169.512	-65.8632	-71.1522	-182.69	-78.344	-90.5098	-210.374	-26.7452	-101.296	-207.074	-48.5255	-123.913	-209.301	-78.5612	-111.348	-234.683	-29.8393	-109.643	-230.884	-58.5001	-125.262	-230.772	-86.1499	-97.4854	-253.836	-37.7743	-99.3435	-247.549	-67.4899	-108.549	-239.239	-82.2197	-79.0711	-271.069	-47.4053	-87.2737	-262.237	-74.3437	-86.9826	-251.49	-78.5467	-56.3956	-254.709	-9.6946	-50.2616	-254.349	-7.90978	-19.6817	-221.311	-7.12971	-32.0401	
42	0.35	-161.551	-20.8844	-21.6625	-136.862	-35.017	-34.0281	-127.831	-55.4314	-57.7371	-131.503	-73.8227	-71.0276	-163.93	-33.0838	-97.8152	-153.229	-63.0982	-112.04	-147.185	-86.0927	-88.288	-184.071	-47.6718	-106.767	-173.716	-77.4858	-111.925	-165.379	-94.1089	-74.8337	-202.899	-57.448	-94.8741	-192.807	-87.9414	-92.5278	-182.899	-89.5709	-61.2606	-218.838	-68.3336	-81.7724	-202.761	-89.9445	-72.8212	-194.879	-82.8119	-44.3722	-218.865	-17.8174	-54.2344	-225.289	-10.7873	-26.1427	-191.467	-3.90829	-37.0635	
43	0.358333	-137.352	4.27537	-22.2058	-110.863	-7.47517	-32.5728	-89.7156	-23.0673	-44.9218	-85.5038	-50.552	-58.0947	-126.959	-30.8361	-94.3485	-101.622	-48.9873	-101.278	-89.8168	-64.4546	-74.7001	-138.564	-47.3899	-96.6999	-110.176	-70.5929	-94.5043	-106.697	-76.2119	-57.9185	-147.465	-63.116	-87.1645	-129.483	-83.1307	-77.4534	-127.397	-76.6563	-41.9545	-159.967	-73.5733	-72.4751	-142.021	-86.4603	-56.7772	-138.797	-72.9031	-31.677	-184.296	-24.0935	-61.1817	-201.784	-15.767	-34.1415	-168.127	4.56833	-43.8174	
44	0.366667	-133.189	27.4674	-28.6511	-97.8716	33.178	-36.2562	-68.4852	20.834	-48.6767	-62.1508	-4.61414	-50.4362	-96.9921	-5.30405	-91.1621	-66.6982	-15.6774	-94.2154	-51.1248	-18.5197	-62.7468	-99.8678	-25.5005	-90.7582	-68.4937	-37.1296	-85.7574	-60.6657	-31.9149	-45.8451	-102.252	-46.8353	-77.9381	-78.346	-53.1474	-64.8527	-81.5202	-40.16	-31.0472	-115.53	-57.1678	-61.1973	-89.7	-58.1042	-43.2655	-94.6867	-36.6028	-22.5529	-156.378	-23.5508	-59.4	-174.971	-14.0149	-38.6318	-153.897	12.5545	-54.982	
45	0.375	-135.87	46.2202	-39.86	-106.457	62.1394	-49.347	-79.3889	59.7155	-54.7425	-59.6633	44.8822	-54.6237	-87.7561	21.5481	-97.2818	-55.1667	27.344	-97.1442	-41.9585	34.4478	-69.151	-79.6546	0.859677	-94.3246	-47.2395	4.06304	-83.9762	-44.197	16.8121	-50.1777	-80.0112	-13.6705	-79.0826	-52.8769	-9.80719	-66.3109	-61.264	5.6808	-33.025	-80.6154	-29.9079	-60.0478	-60.5071	-20.6543	-44.2577	-68.9672	-1.93681	-24.4906	-135.999	-19.7782	-58.3518	-159.874	-12.9857	-39.4591	-149.539	16.6018	-58.2178	
46	0.383333	-147.811	49.6576	-52.965	-129.23	74.6815	-64.1292	-101.909	80.5287	-73.9943	-76.3862	67.3103	-71.8658	-98.8397	34.0205	-108.968	-70.3953	47.9943	-115.454	-55.9464	63.0554	-88.5597	-83.6878	18.0613	-106.116	-53.1054	36.2283	-101.336	-52.873	50.6574	-68.0307	-74.8084	1.21981	-85.4517	-50.8788	22.1471	-80.4345	-58.6914	35.3183	-49.3589	-69.6153	-6.29661	-67.8426	-53.4861	10.6616	-60.8471	-65.1467	27.2534	-38.7203	-125.344	-12.0786	-63.1362	-146.088	-15.014	-37.9138	-150.053	14.5865	-63.4287	
47	0.391667	-164.002	41.4456	-57.7412	-150.715	62.5062	-76.1821	-130.758	79.5133	-97.0558	-103.501	77.056	-98.6796	-119.427	26.7901	-123.636	-101.478	46.465	-135.314	-89.2503	71.9389	-115.56	-103.142	12.7392	-116.513	-77.0927	36.1229	-123.912	-78.7306	61.3968	-93.3239	-85.0776	7.63245	-101.724	-68.938	31.1015	-102.278	-76.4037	49.3705	-72.7784	-80.2476	2.51525	-80.1276	-64.6193	26.3128	-78.5095	-79.4417	42.7539	-57.834	-126.532	-14.2018	-60.9563	-142.535	-17.8069	-40.2434	-158.404	3.06111	-64.7428	
48	0.4	-182.37	26.9375	-56.2764	-176.063	47.097	-82.0318	-164.687	62.2188	-109.921	-136.456	57.9951	-116.22	-153.643	5.51094	-129.022	-137.303	25.6461	-149.02	-127.392	53.9309	-135.666	-131.792	-4.81741	-125.367	-116.761	22.4516	-143.423	-115.214	50.565	-114.829	-117.188	-4.57678	-112.387	-96.8751	19.918	-120.799	-108.923	42.445	-96.6358	-98.4552	-4.60492	-96.6066	-91.423	22.2842	-101.25	-100.036	38.6537	-82.582	-139.156	-25.1088	-62.5002	-147.605	-24.2098	-38.5462	-170.578	-12.0551	-58.7981	
49	0.408333	-206.522	18.4068	-57.4138	-203.736	32.2072	-82.5175	-197.597	41.5435	-111.791	-174.351	38.6719	-129.022	-192.786	-15.376	-128.398	-182.874	4.31267	-152.097	-171.82	31.1729	-144.037	-173.538	-25.7389	-128.557	-159.715	-3.84551	-149.675	-147.935	26.9316	-124.939	-152.191	-26.0596	-119.022	-139.159	-0.416541	-133.696	-137.65	23.0518	-110.323	-138.061	-24.335	-100.787	-128.744	-1.59025	-117.107	-128.58	23.9215	-97.0441	-166.706	-38.4667	-64.3509	-169.919	-30.6277	-35.0379	-196.367	-21.489	-54.3239	
50	0.416667	-224.559	17.6814	-46.0783	-229.091	27.9284	-78.6774	-227.929	32.2648	-107.285	-214.17	25.7841	-131.893	-238.638	-23.9948	-111.945	-227.238	-15.4082	-144.635	-212.501	11.4084	-143.638	-220.394	-40.5537	-118.206	-208.137	-25.076	-145.807	-187.395	2.55857	-130.935	-200.117	-44.0783	-112.11	-182.108	-24.9411	-133.882	-174.262	1.48912	-113.004	-178.655	-44.8383	-104.628	-166.688	-27.8232	-121.123	-163.745	-1.3462	-108.278	-201.766	-46.5976	-54.2416	-195.393	-39.9767	-28.3582	-224.686	-24.1952	-43.1716	
51	0.425	-230.149	25.7262	-42.2226	-236.649	38.3717	-73.1175	-240.617	37.3464	-102.476	-237.155	24.0986	-129.708	-271.474	-15.5705	-100.26	-265.553	-10.8158	-132.317	-237.135	6.90387	-136.394	-262.715	-33.6126	-105.265	-254.475	-25.254	-135.703	-215.712	-6.42329	-123.857	-245.249	-42.9655	-103.765	-227.08	-32.5416	-128.76	-204.047	-16.2231	-113.282	-222.278	-56.0038	-95.8293	-209.257	-39.4162	-118.036	-196.692	-18.2705	-105.326	-236.852	-41.971	-46.8991	-219.855	-38.2836	-21.5969	-247.606	-11.0611	-33.8156	
52	0.433333	-225.253	31.7598	-41.195	-226.069	46.7813	-67.1354	-236.573	56.6192	-101.428	-238.987	42.8188	-123.589	-283.811	15.6325	-89.4477	-282.63	16.8132	-122.79	-249.602	19.6335	-130.438	-287.519	-3.67508	-99.8469	-276.764	1.26041	-128.504	-236.047	4.9517	-120.361	-272.681	-23.1039	-95.049	-256.598	-18.202	-122.541	-225.809	-12.8604	-108.31	-259.087	-39.6369	-91.5497	-241.556	-31.5405	-113.459	-214.24	-21.0816	-101.945	-260.205	-21.3261	-42.3337	-240.68	-26.9186	-14.61	-254.559	10.8306	-29.8799	
